<svg xmlns="http://www.w3.org/2000/svg" version="1.1" xmlns:xlink="http://www.w3.org/1999/xlink" xmlns:svgjs="http://svgjs.dev/svgjs" width="100%" height="100%" viewBox="0 0 1000 600"><rect width="1000" height="600" x="0" y="0" fill="#f96167"/><g><rect width="333.3333333333333" height="333.3333333333333" rx="13.333333333333334" ry="13.333333333333334" y="135.17066644642404" fill="#FCE77" transform="matrix(1.1066995713430796,0,0,1.1066995713430796,0,-34.043238286419665)" x="112.94842529296874"/><path d="M286.22843288501315 376.8373112192739L286.22843288501315 376.8373112192739Q269.8121245562777 376.8373112192739 259.3653828925369 371.9797226585429Q248.94790381048725 367.15139667950297 243.03686230887482 357.6703202115702Q237.15508338895356 348.1892437436374 234.9311271804261 334.28951744034083Q232.73643355358982 320.36052855535314 232.73643355358982 302.24699048853086L232.73643355358982 302.24699048853086Q232.73643355358982 283.7237762780326 234.9311271804261 269.58994932120686Q237.15508338895356 255.4853849460722 243.03686230887482 246.0043084781394Q248.94790381048725 236.5232320102066 259.3653828925369 231.6656434494756Q269.8121245562777 226.83731747043575 286.22843288501315 226.83731747043575L286.22843288501315 226.83731747043575Q293.83670412471236 226.83731747043575 301.29866245595576 227.5688820127145Q308.7898833688903 228.30044655499327 315.3154390860169 229.47094982263928Q321.84099480314353 230.61219050859418 326.49374529203646 231.6656434494756L326.49374529203646 231.6656434494756L325.84996849483116 245.79947040630134Q321.22648058762934 244.95085553725798 314.4668242169736 244.1022406682146Q307.73643042800893 243.25362579917123 300.77193598551503 242.63911158365707Q293.83670412471236 241.99533478645176 288.13050069493795 241.99533478645176L288.13050069493795 241.99533478645176Q276.1328422015662 241.99533478645176 268.64162128863165 245.56536975277214Q261.17966295738825 249.1646673007837 257.1706892657006 256.62662563202707Q253.16171557401293 264.1178465449616 251.6985864894554 275.3839404960546Q250.20619482320674 286.6500344471476 250.20619482320674 302.24699048853086L250.20619482320674 302.24699048853086Q250.20619482320674 317.4342703862381 251.6985864894554 328.7003643373311Q253.16171557401293 339.9664582884241 257.05363893893605 347.2235785478294Q260.945562303859 354.509961388926 268.5538335435582 358.07999635524635Q276.1328422015662 361.6792939032578 288.335338766776 361.6792939032578L288.335338766776 361.6792939032578Q297.2019010191947 361.6792939032578 307.8242181730824 360.5087906356119Q318.4757979086612 359.33828736796585 325.84996849483116 358.07999635524635L325.84996849483116 358.07999635524635L326.49374529203646 372.4186613839101Q321.43131865946737 373.47211432479156 314.6716622888116 374.52556726567303Q307.94126849984696 375.5790202065544 300.567097913677 376.1935344220686Q293.19292732750705 376.8373112192739 286.22843288501315 376.8373112192739Z " fill="#ffffff" transform="matrix(1.1066995713430796,0,0,1.1066995713430796,0,-34.043238286419665)"/><path d="M545.5207050956734 374.77388751838004L529.615088023205 374.77388751838004L529.615088023205 271.60231731858505L545.5207050956734 271.60231731858505L545.5207050956734 285.4158442175576Q549.4469565171656 282.7505786540629 555.4079805731537 279.5407964700694Q561.3976633986418 276.3596730555756 568.6196733126275 273.4651373360814Q575.8416832266131 270.57060161658717 583.0636931405987 269.33827452808964L583.0636931405987 269.33827452808964L583.0636931405987 285.64511437355713Q576.0422946131127 287.0780528485543 568.8202846991271 289.4567307170496Q561.5982747851414 291.8354085855449 555.5226156511535 294.5006741490396Q549.4469565171656 297.1945984820343 545.5207050956734 299.25802988603016L545.5207050956734 299.25802988603016L545.5207050956734 374.77388751838004ZM632.5860468365004 376.8373189223759L632.5860468365004 376.8373189223759Q619.3743540970266 376.8373189223759 612.3816143390405 371.47812902588663Q605.3602158115544 366.11893912939723 602.7809265565596 354.77006640741985Q600.2016373015648 343.42119368544235 600.2016373015648 325.45214520897804L600.2016373015648 325.45214520897804L600.2016373015648 271.60231731858505L616.0785956045332 271.60231731858505L616.0785956045332 325.45214520897804Q616.0785956045332 339.06506072145106 617.4255577710305 347.11817495093504Q618.7725199375278 355.171289180419 623.3006055185189 358.78229413741184Q627.8573498690098 362.39329909440465 636.9135210309918 362.39329909440465L636.9135210309918 362.39329909440465Q645.9983509624736 362.39329909440465 653.420972262959 359.9286449174096Q660.8722523329442 357.43533197091455 665.4003379139351 354.9706777939195L665.4003379139351 354.9706777939195L665.4003379139351 271.60231731858505L681.2772962169037 271.60231731858505L681.2772962169037 374.77388751838004L665.4003379139351 374.77388751838004L665.4003379139351 367.5518776043944Q658.8088209289482 371.277517639387 651.0709531639636 374.05741828088145Q643.333085398979 376.8373189223759 632.5860468365004 376.8373189223759ZM743.6101198792798 376.8373189223759L743.6101198792798 376.8373189223759Q737.419825667292 376.8373189223759 731.8313656148031 375.4903567558786Q726.2715643318141 374.14339458938133 721.6288436728235 370.8476360968879Q716.9861230138326 367.5518776043944 713.4897531348396 361.67682985690607Q709.9647244863465 355.80178210941773 708.1019044688502 346.5163407914362Q706.267743220854 337.2308994734547 706.267743220854 324.019206733981L706.267743220854 324.019206733981Q706.267743220854 305.64893548451744 710.5952174153452 293.58359352504146Q714.9226916098368 281.5182515655654 724.4087443143179 275.5285687400773Q733.894797018799 269.5388859145892 749.5998027047677 269.5388859145892L749.5998027047677 269.5388859145892Q753.4973953567601 269.5388859145892 758.2547510937505 269.94010868758846Q763.0121068307411 270.3699902300875 767.4255573337324 270.97182438958635Q771.8676666062236 271.60231731858505 774.5615909392183 272.23281024758387L774.5615909392183 272.23281024758387L774.5615909392183 226.83731935967407L790.6391606286862 226.83731935967407L790.6391606286862 374.77388751838004L774.7622023257178 374.77388751838004L774.7622023257178 367.9531003773936Q771.4664438332243 369.81592039488993 766.1932302452349 371.8793517988858Q760.9486754267452 373.9427832028817 755.044968909757 375.40438044737886Q749.1699211622687 376.8373189223759 743.6101198792798 376.8373189223759ZM745.6735512832755 362.39329909440465L745.6735512832755 362.39329909440465Q751.0327411797649 362.39329909440465 756.5065661542541 361.1609720059071Q761.9803911287432 359.9286449174096 766.7090880962338 358.15180120841313Q771.4664438332243 356.40361626891655 774.5615909392183 354.9706777939195L774.5615909392183 354.9706777939195L774.5615909392183 285.8457257600568Q772.0682779927232 285.4158442175576 767.7408037982317 284.89998636655866Q763.4133296037404 284.3841285155597 758.7706089447496 283.98290574256055Q754.1278882857588 283.58168296956126 750.4022482507662 283.58168296956126L750.4022482507662 283.58168296956126Q739.8844798442871 283.58168296956126 733.894797018799 288.1097685505523Q727.9337729628108 292.63785413154324 725.354483707816 301.63670775452545Q722.7751944528211 310.60690260800754 722.7751944528211 324.019206733981L722.7751944528211 324.019206733981Q722.7751944528211 336.39979515795636 724.6093557008174 343.9370515364413Q726.4721757183138 351.44564914542644 729.6819579023073 355.48653564491843Q732.8630813168011 359.4987633749104 736.9899441247929 360.9603606194075Q741.1168069327847 362.39329909440465 745.6735512832755 362.39329909440465Z " fill="#fce77d" transform="matrix(1.1066995713430796,0,0,1.1066995713430796,0,-34.043238286419665)"/></g></svg>